<mxfile host="app.diagrams.net" modified="2023-01-24T12:51:05.766Z" agent="5.0 (Windows NT 6.1; Win64; x64) AppleWebKit/537.36 (KHTML, like Gecko) Chrome/108.0.0.0 Safari/537.36 OPR/94.0.0.0" etag="wBFuIilka5bBVxDv_ctg" version="20.8.10" type="github">
  <diagram name="Page-1" id="55a83fd1-7818-8e21-69c5-c3457e3827bb">
    <mxGraphModel dx="2074" dy="1126" grid="1" gridSize="10" guides="1" tooltips="1" connect="1" arrows="1" fold="1" page="1" pageScale="1" pageWidth="1100" pageHeight="850" background="none" math="0" shadow="0">
      <root>
        <mxCell id="0" />
        <mxCell id="1" parent="0" />
        <mxCell id="8JaOrQgvwe7hHYjEQXCQ-12" value="Modbus/TCP&lt;br&gt;Ethernet" style="edgeStyle=orthogonalEdgeStyle;rounded=0;orthogonalLoop=1;jettySize=auto;html=1;entryX=0.013;entryY=0.425;entryDx=0;entryDy=0;entryPerimeter=0;" edge="1" parent="1" source="69ecfefc5c41e42c-1" target="8JaOrQgvwe7hHYjEQXCQ-10">
          <mxGeometry x="-0.0002" relative="1" as="geometry">
            <mxPoint as="offset" />
          </mxGeometry>
        </mxCell>
        <mxCell id="69ecfefc5c41e42c-1" value="Dell PC" style="image;html=1;labelBackgroundColor=#ffffff;image=img/lib/clip_art/networking/Wireless_Router_128x128.png;rounded=1;shadow=0;comic=0;strokeWidth=2;fontSize=22" parent="1" vertex="1">
          <mxGeometry x="470" y="465" width="80" height="80" as="geometry" />
        </mxCell>
        <mxCell id="8JaOrQgvwe7hHYjEQXCQ-6" value="Аналоговый сигнал" style="edgeStyle=orthogonalEdgeStyle;rounded=0;orthogonalLoop=1;jettySize=auto;html=1;" edge="1" parent="1" source="8JaOrQgvwe7hHYjEQXCQ-1" target="8JaOrQgvwe7hHYjEQXCQ-3">
          <mxGeometry relative="1" as="geometry" />
        </mxCell>
        <mxCell id="8JaOrQgvwe7hHYjEQXCQ-1" value="" style="points=[];aspect=fixed;html=1;align=center;shadow=0;dashed=0;image;image=img/lib/allied_telesis/security/POE_DVS_Camera.svg;" vertex="1" parent="1">
          <mxGeometry x="349" y="100" width="51" height="40.2" as="geometry" />
        </mxCell>
        <mxCell id="8JaOrQgvwe7hHYjEQXCQ-7" value="&lt;span style=&quot;color: rgb(0, 0, 0); font-family: Helvetica; font-size: 11px; font-style: normal; font-variant-ligatures: normal; font-variant-caps: normal; font-weight: 400; letter-spacing: normal; orphans: 2; text-align: center; text-indent: 0px; text-transform: none; widows: 2; word-spacing: 0px; -webkit-text-stroke-width: 0px; background-color: rgb(255, 255, 255); text-decoration-thickness: initial; text-decoration-style: initial; text-decoration-color: initial; float: none; display: inline !important;&quot;&gt;Аналоговый сигнал&lt;/span&gt;" style="edgeStyle=orthogonalEdgeStyle;rounded=0;orthogonalLoop=1;jettySize=auto;html=1;entryX=1;entryY=0.5;entryDx=0;entryDy=0;" edge="1" parent="1" source="8JaOrQgvwe7hHYjEQXCQ-2" target="8JaOrQgvwe7hHYjEQXCQ-3">
          <mxGeometry relative="1" as="geometry" />
        </mxCell>
        <mxCell id="8JaOrQgvwe7hHYjEQXCQ-2" value="" style="points=[];aspect=fixed;html=1;align=center;shadow=0;dashed=0;image;image=img/lib/allied_telesis/security/POE_DVS_Camera.svg;" vertex="1" parent="1">
          <mxGeometry x="630" y="100" width="51" height="40.2" as="geometry" />
        </mxCell>
        <mxCell id="8JaOrQgvwe7hHYjEQXCQ-8" value="RTSP потоки&lt;br&gt;Ethernet" style="edgeStyle=orthogonalEdgeStyle;rounded=0;orthogonalLoop=1;jettySize=auto;html=1;" edge="1" parent="1" source="8JaOrQgvwe7hHYjEQXCQ-3" target="69ecfefc5c41e42c-1">
          <mxGeometry relative="1" as="geometry" />
        </mxCell>
        <mxCell id="8JaOrQgvwe7hHYjEQXCQ-3" value="" style="image;html=1;image=img/lib/clip_art/computers/Harddrive_128x128.png" vertex="1" parent="1">
          <mxGeometry x="470" y="140.2" width="80" height="80" as="geometry" />
        </mxCell>
        <mxCell id="8JaOrQgvwe7hHYjEQXCQ-9" value="Вычислитель" style="text;html=1;align=center;verticalAlign=middle;resizable=0;points=[];autosize=1;strokeColor=none;fillColor=none;" vertex="1" parent="1">
          <mxGeometry x="510" y="460" width="100" height="30" as="geometry" />
        </mxCell>
        <mxCell id="8JaOrQgvwe7hHYjEQXCQ-13" value="4-20mA" style="edgeStyle=orthogonalEdgeStyle;rounded=0;orthogonalLoop=1;jettySize=auto;html=1;entryX=0;entryY=0.385;entryDx=0;entryDy=0;entryPerimeter=0;shape=link;" edge="1" parent="1" source="8JaOrQgvwe7hHYjEQXCQ-10" target="8JaOrQgvwe7hHYjEQXCQ-11">
          <mxGeometry relative="1" as="geometry" />
        </mxCell>
        <mxCell id="8JaOrQgvwe7hHYjEQXCQ-10" value="" style="image;html=1;image=img/lib/clip_art/computers/USB_Hub_128x128.png" vertex="1" parent="1">
          <mxGeometry x="660" y="330" width="80" height="80" as="geometry" />
        </mxCell>
        <mxCell id="8JaOrQgvwe7hHYjEQXCQ-11" value="Siemens" style="sketch=0;outlineConnect=0;fontColor=#232F3E;gradientColor=none;fillColor=#3F8624;strokeColor=none;dashed=0;verticalLabelPosition=bottom;verticalAlign=top;align=center;html=1;fontSize=12;fontStyle=0;aspect=fixed;pointerEvents=1;shape=mxgraph.aws4.iot_thing_plc;" vertex="1" parent="1">
          <mxGeometry x="870" y="250" width="78" height="78" as="geometry" />
        </mxCell>
      </root>
    </mxGraphModel>
  </diagram>
</mxfile>
